<svg width="7" height="11" viewBox="0 0 7 11" fill="none" xmlns="http://www.w3.org/2000/svg">
<path d="M6.34911 7.66633C5.85969 7.56414 5.40967 7.37422 5.01293 7.10313C4.82055 6.967 4.54612 6.98363 4.34326 7.12794L3.18115 7.73944C2.35956 6.87524 1.95209 5.96011 1.80219 4.6405L2.80196 3.745C3.0326 3.58395 3.18603 3.30976 3.20238 3.02637C3.22689 2.45734 3.33442 1.87732 3.52214 1.30304C3.65483 0.897106 3.48178 0.508097 3.13642 0.435984L1.67485 0.130795C1.32949 0.0586819 0.940484 0.330327 0.807792 0.736258C-0.740352 5.47236 1.27849 10.0105 5.30782 10.8519C5.65317 10.924 6.04218 10.6523 6.17487 10.2464L6.73483 8.53339C6.86752 8.12746 6.69447 7.73845 6.34911 7.66633Z" fill="#FF7B5B"/>
</svg>
