<svg width="55" height="50" viewBox="0 0 55 50" fill="none" xmlns="http://www.w3.org/2000/svg">
<rect width="50" height="50" rx="19" fill="#FAB005"/>
<path d="M26.4821 23.6429L27.6518 24.1875L29.3929 23.6696V22.4554C29.3929 20.3929 27.6518 18.7411 25.5714 18.7411C23.5 18.7411 21.75 20.3839 21.75 22.4286V27.9643C21.75 28.4732 21.3393 28.875 20.8393 28.875C20.3393 28.875 19.9286 28.4732 19.9286 27.9643V25.625H17C17 27.9732 17 28 17 28C17 30.1161 18.7143 31.8304 20.8304 31.8304C22.9286 31.8304 24.6607 30.1429 24.6607 28.0536V22.5893C24.6607 22.0893 25.0714 21.6786 25.5714 21.6786C26.0714 21.6786 26.4821 22.0893 26.4821 22.5893V23.6429ZM31.2143 25.625V28.0804C31.2143 28.5804 30.8036 28.9821 30.3036 28.9821C29.8036 28.9821 29.3929 28.5804 29.3929 28.0804V25.6696L27.6518 26.1875L26.4821 25.6429V28.0357C26.4821 30.1339 28.2054 31.8304 30.3125 31.8304C32.4286 31.8304 34.1429 30.1161 34.1429 28C34.1429 28 34.1429 27.9732 34.1429 25.625H31.2143Z" fill="white"/>
</svg>
